<?xml version="1.0" encoding="UTF-8" standalone="no"?>
<!DOCTYPE svg PUBLIC "-//W3C//DTD SVG 1.1//EN"
 "http://www.w3.org/Graphics/SVG/1.1/DTD/svg11.dtd">
<!-- Generated by graphviz version 2.36.0 (20140111.2315)
 -->
<!-- Title: ofzo Pages: 1 -->
<svg width="1017pt" height="476pt"
 viewBox="0.00 0.00 1017.00 476.00" xmlns="http://www.w3.org/2000/svg" xmlns:xlink="http://www.w3.org/1999/xlink">
<g id="graph0" class="graph" transform="scale(1 1) rotate(0) translate(4 472)">
<title>ofzo</title>
<polygon fill="white" stroke="none" points="-4,4 -4,-472 1013,-472 1013,4 -4,4"/>
<!-- Raf -->
<g id="node1" class="node"><title>Raf</title>
<ellipse fill="#b2dfee" stroke="#b2dfee" cx="366" cy="-306" rx="27" ry="18"/>
<text text-anchor="middle" x="366" y="-301.8" font-family="Times,serif" font-size="14.00">Raf</text>
</g>
<!-- JNK -->
<g id="node11" class="node"><title>JNK</title>
<ellipse fill="#b2dfee" stroke="#b2dfee" cx="495" cy="-234" rx="27" ry="18"/>
<text text-anchor="middle" x="495" y="-229.8" font-family="Times,serif" font-size="14.00">JNK</text>
</g>
<!-- Raf&#45;&gt;JNK -->
<g id="edge17" class="edge"><title>Raf&#45;&gt;JNK</title>
<path fill="none" stroke="black" d="M386.44,-293.908C407.765,-282.337 441.396,-264.087 465.576,-250.966"/>
<polygon fill="black" stroke="black" points="467.535,-253.886 474.655,-246.04 464.197,-247.733 467.535,-253.886"/>
</g>
<!-- Mek -->
<g id="node2" class="node"><title>Mek</title>
<ellipse fill="#b2dfee" stroke="#b2dfee" cx="169" cy="-378" rx="27" ry="18"/>
<text text-anchor="middle" x="169" y="-373.8" font-family="Times,serif" font-size="14.00">Mek</text>
</g>
<!-- Mek&#45;&gt;Raf -->
<g id="edge15" class="edge"><title>Mek&#45;&gt;Raf</title>
<path fill="none" stroke="black" d="M200.388,-365.847C236.611,-352.976 295.923,-331.9 332.869,-318.773"/>
<ellipse fill="black" stroke="black" cx="196.141" cy="-367.356" rx="4.00001" ry="4.00001"/>
<polygon fill="black" stroke="black" points="334.407,-321.94 342.658,-315.294 332.064,-315.344 334.407,-321.94"/>
</g>
<!-- Erk -->
<g id="node6" class="node"><title>Erk</title>
<ellipse fill="#b2dfee" stroke="#b2dfee" cx="186" cy="-90" rx="27" ry="18"/>
<text text-anchor="middle" x="186" y="-85.8" font-family="Times,serif" font-size="14.00">Erk</text>
</g>
<!-- Mek&#45;&gt;Erk -->
<g id="edge2" class="edge"><title>Mek&#45;&gt;Erk</title>
<path fill="none" stroke="black" d="M170.013,-359.966C172.846,-312.291 180.877,-177.185 184.358,-118.63"/>
<polygon fill="black" stroke="black" points="187.872,-118.497 184.971,-108.306 180.884,-118.081 187.872,-118.497"/>
</g>
<!-- PLCg -->
<g id="node3" class="node"><title>PLCg</title>
<ellipse fill="#b2dfee" stroke="#b2dfee" cx="809" cy="-162" rx="30.62" ry="18"/>
<text text-anchor="middle" x="809" y="-157.8" font-family="Times,serif" font-size="14.00">PLCg</text>
</g>
<!-- PIP2 -->
<g id="node4" class="node"><title>PIP2</title>
<ellipse fill="#b2dfee" stroke="#b2dfee" cx="894" cy="-90" rx="26.9676" ry="18"/>
<text text-anchor="middle" x="894" y="-85.8" font-family="Times,serif" font-size="14.00">PIP2</text>
</g>
<!-- PLCg&#45;&gt;PIP2 -->
<g id="edge21" class="edge"><title>PLCg&#45;&gt;PIP2</title>
<path fill="none" stroke="black" d="M826.201,-146.834C838.772,-136.482 855.986,-122.306 869.923,-110.828"/>
<polygon fill="black" stroke="black" points="872.195,-113.491 877.69,-104.432 867.745,-108.087 872.195,-113.491"/>
</g>
<!-- PIP3 -->
<g id="node5" class="node"><title>PIP3</title>
<ellipse fill="#b2dfee" stroke="#b2dfee" cx="860" cy="-234" rx="26.9676" ry="18"/>
<text text-anchor="middle" x="860" y="-229.8" font-family="Times,serif" font-size="14.00">PIP3</text>
</g>
<!-- PIP3&#45;&gt;PLCg -->
<g id="edge23" class="edge"><title>PIP3&#45;&gt;PLCg</title>
<path fill="none" stroke="black" d="M848.681,-217.465C842.235,-208.617 834.017,-197.337 826.733,-187.339"/>
<polygon fill="black" stroke="black" points="829.358,-184.999 820.64,-178.977 823.7,-189.121 829.358,-184.999"/>
</g>
<!-- PIP3&#45;&gt;PIP2 -->
<g id="edge12" class="edge"><title>PIP3&#45;&gt;PIP2</title>
<path fill="none" stroke="black" d="M864.034,-216.153C869.862,-191.813 880.695,-146.568 887.615,-117.665"/>
<polygon fill="black" stroke="black" points="891.047,-118.365 889.971,-107.825 884.239,-116.735 891.047,-118.365"/>
</g>
<!-- PKA -->
<g id="node8" class="node"><title>PKA</title>
<ellipse fill="#b2dfee" stroke="#b2dfee" cx="327" cy="-18" rx="27.2014" ry="18"/>
<text text-anchor="middle" x="327" y="-13.8" font-family="Times,serif" font-size="14.00">PKA</text>
</g>
<!-- Erk&#45;&gt;PKA -->
<g id="edge25" class="edge"><title>Erk&#45;&gt;PKA</title>
<path fill="none" stroke="black" d="M207.109,-78.5203C230.887,-66.7157 269.729,-47.4326 296.733,-34.0263"/>
<polygon fill="black" stroke="black" points="298.346,-37.133 305.747,-29.5513 295.233,-30.8632 298.346,-37.133"/>
</g>
<!-- Akt -->
<g id="node7" class="node"><title>Akt</title>
<ellipse fill="#b2dfee" stroke="#b2dfee" cx="311" cy="-162" rx="27" ry="18"/>
<text text-anchor="middle" x="311" y="-157.8" font-family="Times,serif" font-size="14.00">Akt</text>
</g>
<!-- Akt&#45;&gt;Erk -->
<g id="edge6" class="edge"><title>Akt&#45;&gt;Erk</title>
<path fill="none" stroke="black" d="M290.917,-149.753C270.324,-138.221 238.099,-120.175 214.794,-107.125"/>
<polygon fill="black" stroke="black" points="216.469,-104.051 206.034,-102.219 213.049,-110.159 216.469,-104.051"/>
</g>
<!-- Akt&#45;&gt;PKA -->
<g id="edge33" class="edge"><title>Akt&#45;&gt;PKA</title>
<path fill="none" stroke="black" d="M325.115,-146.644C333.858,-136.701 344.288,-122.659 349,-108 355.781,-86.9044 348.68,-62.4322 340.791,-44.4948"/>
<polygon fill="black" stroke="black" points="343.86,-42.798 336.41,-35.2648 337.536,-45.7996 343.86,-42.798"/>
</g>
<!-- PKC -->
<g id="node9" class="node"><title>PKC</title>
<ellipse fill="#b2dfee" stroke="#b2dfee" cx="514" cy="-306" rx="26.9676" ry="18"/>
<text text-anchor="middle" x="514" y="-301.8" font-family="Times,serif" font-size="14.00">PKC</text>
</g>
<!-- PKC&#45;&gt;JNK -->
<g id="edge34" class="edge"><title>PKC&#45;&gt;JNK</title>
<path fill="none" stroke="black" d="M507.254,-280.146C505.619,-274.124 503.866,-267.664 502.211,-261.566"/>
<ellipse fill="black" stroke="black" cx="508.353" cy="-284.195" rx="4.00001" ry="4.00001"/>
<polygon fill="black" stroke="black" points="505.554,-260.523 499.557,-251.789 498.799,-262.357 505.554,-260.523"/>
</g>
<!-- p38 -->
<g id="node10" class="node"><title>p38</title>
<ellipse fill="#b2dfee" stroke="#b2dfee" cx="609" cy="-378" rx="27" ry="18"/>
<text text-anchor="middle" x="609" y="-373.8" font-family="Times,serif" font-size="14.00">p38</text>
</g>
<!-- p38&#45;&gt;Raf -->
<g id="edge22" class="edge"><title>p38&#45;&gt;Raf</title>
<path fill="none" stroke="black" d="M576.539,-367.649C530.555,-354.403 446.844,-330.288 400.023,-316.801"/>
<ellipse fill="black" stroke="black" cx="580.519" cy="-368.796" rx="4.00001" ry="4.00001"/>
<polygon fill="black" stroke="black" points="400.919,-313.417 390.341,-314.012 398.982,-320.143 400.919,-313.417"/>
</g>
<!-- p38&#45;&gt;PKC -->
<g id="edge20" class="edge"><title>p38&#45;&gt;PKC</title>
<path fill="none" stroke="black" d="M584.811,-359.177C571.078,-349.057 553.888,-336.391 539.884,-326.072"/>
<ellipse fill="black" stroke="black" cx="588.355" cy="-361.788" rx="4.00002" ry="4.00002"/>
<polygon fill="black" stroke="black" points="541.763,-323.109 531.636,-319.995 537.61,-328.744 541.763,-323.109"/>
</g>
<!-- p38&#45;&gt;JNK -->
<g id="edge4" class="edge"><title>p38&#45;&gt;JNK</title>
<path fill="none" stroke="black" d="M599.751,-360.833C588.887,-342.412 569.817,-311.785 550,-288 540.623,-276.746 529.097,-265.335 519.023,-255.999"/>
<polygon fill="black" stroke="black" points="521.078,-253.137 511.324,-248.999 516.369,-258.316 521.078,-253.137"/>
</g>
<!-- JNK&#45;&gt;PLCg -->
<g id="edge41" class="edge"><title>JNK&#45;&gt;PLCg</title>
<path fill="none" stroke="black" d="M520.165,-227.39C575.145,-215.133 706.245,-185.907 771.198,-171.427"/>
<polygon fill="black" stroke="black" points="772.034,-174.827 781.033,-169.235 770.511,-167.994 772.034,-174.827"/>
</g>
<!-- JNK&#45;&gt;Akt -->
<g id="edge24" class="edge"><title>JNK&#45;&gt;Akt</title>
<path fill="none" stroke="black" d="M472.068,-224.276C439.751,-211.981 380.638,-189.493 343.716,-175.446"/>
<polygon fill="black" stroke="black" points="344.522,-172.008 333.931,-171.724 342.033,-178.551 344.522,-172.008"/>
</g>
<!-- I_AKT -->
<g id="node12" class="node"><title>I_AKT</title>
<ellipse fill="#b2dfee" stroke="#b2dfee" cx="907" cy="-306" rx="35.4718" ry="18"/>
<text text-anchor="middle" x="907" y="-301.8" font-family="Times,serif" font-size="14.00">I_AKT</text>
</g>
<!-- I_AKT&#45;&gt;PIP2 -->
<g id="edge26" class="edge"><title>I_AKT&#45;&gt;PIP2</title>
<path fill="none" stroke="black" d="M905.461,-279.67C902.998,-239.116 898.188,-159.949 895.654,-118.227"/>
<ellipse fill="black" stroke="black" cx="905.716" cy="-283.857" rx="4" ry="4"/>
<polygon fill="black" stroke="black" points="899.147,-118.002 895.047,-108.232 892.16,-118.426 899.147,-118.002"/>
</g>
<!-- I_AKT&#45;&gt;PIP3 -->
<g id="edge42" class="edge"><title>I_AKT&#45;&gt;PIP3</title>
<path fill="none" stroke="black" d="M891.531,-281.961C886.687,-274.747 881.325,-266.761 876.418,-259.452"/>
<ellipse fill="black" stroke="black" cx="893.869" cy="-285.444" rx="4.00002" ry="4.00002"/>
<polygon fill="black" stroke="black" points="878.999,-257.017 870.518,-250.666 873.187,-260.919 878.999,-257.017"/>
</g>
<!-- I_G0076 -->
<g id="node13" class="node"><title>I_G0076</title>
<ellipse fill="#b2dfee" stroke="#b2dfee" cx="636" cy="-450" rx="41.3201" ry="18"/>
<text text-anchor="middle" x="636" y="-445.8" font-family="Times,serif" font-size="14.00">I_G0076</text>
</g>
<!-- I_G0076&#45;&gt;Raf -->
<g id="edge27" class="edge"><title>I_G0076&#45;&gt;Raf</title>
<path fill="none" stroke="black" d="M586.305,-448.999C536.944,-446.526 461.522,-435.78 411,-396 391.191,-380.403 379.358,-353.753 372.836,-333.671"/>
<ellipse fill="black" stroke="black" cx="590.604" cy="-449.181" rx="4" ry="4"/>
<polygon fill="black" stroke="black" points="376.119,-332.436 369.895,-323.862 369.414,-334.446 376.119,-332.436"/>
</g>
<!-- I_G0076&#45;&gt;Mek -->
<g id="edge1" class="edge"><title>I_G0076&#45;&gt;Mek</title>
<path fill="none" stroke="black" d="M586.644,-447.162C506.426,-443.224 343.306,-431.236 210,-396 206.62,-395.106 203.15,-393.996 199.728,-392.773"/>
<ellipse fill="black" stroke="black" cx="591.082" cy="-447.372" rx="4" ry="4"/>
<polygon fill="black" stroke="black" points="200.915,-389.479 190.326,-389.116 198.377,-396.003 200.915,-389.479"/>
</g>
<!-- I_G0076&#45;&gt;PLCg -->
<g id="edge29" class="edge"><title>I_G0076&#45;&gt;PLCg</title>
<path fill="none" stroke="black" d="M661.18,-435.699C695.413,-416.165 755.722,-376.296 785,-324 808.668,-281.724 811.399,-223.863 810.621,-190.253"/>
<polygon fill="black" stroke="black" points="814.118,-190.114 810.267,-180.244 807.123,-190.361 814.118,-190.114"/>
</g>
<!-- I_G0076&#45;&gt;PIP2 -->
<g id="edge28" class="edge"><title>I_G0076&#45;&gt;PIP2</title>
<path fill="none" stroke="black" d="M677.414,-449.721C767.043,-448.904 971,-433.18 971,-307 971,-307 971,-307 971,-233 971,-185.983 937.974,-139.645 915.181,-113.263"/>
<polygon fill="black" stroke="black" points="917.746,-110.88 908.483,-105.737 912.517,-115.534 917.746,-110.88"/>
</g>
<!-- I_G0076&#45;&gt;Erk -->
<g id="edge19" class="edge"><title>I_G0076&#45;&gt;Erk</title>
<path fill="none" stroke="black" d="M594.878,-447.759C480.286,-443.879 163.732,-430.141 133,-396 60.4501,-315.404 135.184,-172.39 170.104,-115.413"/>
<polygon fill="black" stroke="black" points="173.203,-117.058 175.534,-106.723 167.267,-113.349 173.203,-117.058"/>
</g>
<!-- I_G0076&#45;&gt;Akt -->
<g id="edge13" class="edge"><title>I_G0076&#45;&gt;Akt</title>
<path fill="none" stroke="black" d="M594.508,-449.261C509.693,-448.817 321.07,-442.497 281,-396 229.687,-336.457 272.635,-234.514 297.002,-187.756"/>
<polygon fill="black" stroke="black" points="300.104,-189.377 301.737,-178.909 293.932,-186.074 300.104,-189.377"/>
</g>
<!-- I_G0076&#45;&gt;PKA -->
<g id="edge30" class="edge"><title>I_G0076&#45;&gt;PKA</title>
<path fill="none" stroke="black" d="M676.578,-446.211C751.143,-440.439 906.409,-425.212 951,-396 990.493,-370.127 1009,-354.214 1009,-307 1009,-307 1009,-307 1009,-161 1009,-108.109 977.245,-95.777 930,-72 830.321,-21.8344 481.046,-18.4267 364.888,-18.7223"/>
<polygon fill="black" stroke="black" points="364.693,-15.2228 354.706,-18.7595 364.719,-22.2228 364.693,-15.2228"/>
</g>
<!-- I_G0076&#45;&gt;PKC -->
<g id="edge31" class="edge"><title>I_G0076&#45;&gt;PKC</title>
<path fill="none" stroke="black" d="M646.561,-424.288C652.957,-405.15 657.686,-378.817 645,-360 633.797,-343.383 583.541,-326.39 548.64,-316.268"/>
<ellipse fill="black" stroke="black" cx="645.127" cy="-428.245" rx="4.00001" ry="4.00001"/>
<polygon fill="black" stroke="black" points="549.381,-312.84 538.805,-313.479 547.471,-319.575 549.381,-312.84"/>
</g>
<!-- I_G0076&#45;&gt;p38 -->
<g id="edge37" class="edge"><title>I_G0076&#45;&gt;p38</title>
<path fill="none" stroke="black" d="M626.523,-424.431C624.125,-418.214 621.541,-411.514 619.113,-405.22"/>
<ellipse fill="black" stroke="black" cx="628.025" cy="-428.323" rx="4.00001" ry="4.00001"/>
<polygon fill="black" stroke="black" points="622.34,-403.859 615.476,-395.789 615.809,-406.379 622.34,-403.859"/>
</g>
<!-- I_G0076&#45;&gt;JNK -->
<g id="edge3" class="edge"><title>I_G0076&#45;&gt;JNK</title>
<path fill="none" stroke="black" d="M652.043,-425.878C662.661,-407.523 672.95,-381.469 663,-360 657.795,-348.77 587.961,-295.347 578,-288 560.354,-274.984 539.558,-261.708 523.196,-251.698"/>
<ellipse fill="black" stroke="black" cx="649.929" cy="-429.338" rx="4.00002" ry="4.00002"/>
<polygon fill="black" stroke="black" points="524.977,-248.685 514.61,-246.496 521.349,-254.672 524.977,-248.685"/>
</g>
<!-- I_Psitectorigenin -->
<g id="node14" class="node"><title>I_Psitectorigenin</title>
<ellipse fill="#b2dfee" stroke="#b2dfee" cx="706" cy="-306" rx="70.2884" ry="18"/>
<text text-anchor="middle" x="706" y="-301.8" font-family="Times,serif" font-size="14.00">I_Psitectorigenin</text>
</g>
<!-- I_Psitectorigenin&#45;&gt;PIP3 -->
<g id="edge40" class="edge"><title>I_Psitectorigenin&#45;&gt;PIP3</title>
<path fill="none" stroke="black" d="M746.639,-286.528C772.332,-274.849 805.035,-259.984 828.706,-249.224"/>
<ellipse fill="black" stroke="black" cx="742.678" cy="-288.328" rx="4.00002" ry="4.00002"/>
<polygon fill="black" stroke="black" points="830.279,-252.354 837.934,-245.03 827.382,-245.982 830.279,-252.354"/>
</g>
<!-- I_Psitectorigenin&#45;&gt;Erk -->
<g id="edge38" class="edge"><title>I_Psitectorigenin&#45;&gt;Erk</title>
<path fill="none" stroke="black" d="M670.463,-285.637C635.451,-266.869 580.212,-238.079 531,-216 450.879,-180.053 430.171,-172.182 347,-144 292.244,-125.446 276.091,-128.409 222,-108 220.157,-107.305 218.278,-106.553 216.394,-105.767"/>
<ellipse fill="black" stroke="black" cx="674.094" cy="-287.589" rx="4.00002" ry="4.00002"/>
<polygon fill="black" stroke="black" points="217.637,-102.49 207.076,-101.644 214.805,-108.891 217.637,-102.49"/>
</g>
<!-- I_U0126 -->
<g id="node15" class="node"><title>I_U0126</title>
<ellipse fill="#b2dfee" stroke="#b2dfee" cx="122" cy="-450" rx="41.3201" ry="18"/>
<text text-anchor="middle" x="122" y="-445.8" font-family="Times,serif" font-size="14.00">I_U0126</text>
</g>
<!-- I_U0126&#45;&gt;Raf -->
<g id="edge9" class="edge"><title>I_U0126&#45;&gt;Raf</title>
<path fill="none" stroke="black" d="M152.983,-430.969C200.613,-403.25 291.145,-350.563 337.337,-323.681"/>
<ellipse fill="black" stroke="black" cx="149.297" cy="-433.114" rx="4.00002" ry="4.00002"/>
<polygon fill="black" stroke="black" points="339.341,-326.564 346.224,-318.509 335.82,-320.514 339.341,-326.564"/>
</g>
<!-- I_U0126&#45;&gt;Mek -->
<g id="edge11" class="edge"><title>I_U0126&#45;&gt;Mek</title>
<path fill="none" stroke="black" d="M137.636,-425.713C142.396,-418.623 147.643,-410.808 152.461,-403.633"/>
<ellipse fill="black" stroke="black" cx="135.368" cy="-429.09" rx="4.00002" ry="4.00002"/>
<polygon fill="black" stroke="black" points="155.597,-405.241 158.265,-394.988 149.785,-401.339 155.597,-405.241"/>
</g>
<!-- I_U0126&#45;&gt;Erk -->
<g id="edge8" class="edge"><title>I_U0126&#45;&gt;Erk</title>
<path fill="none" stroke="black" d="M105.001,-433.332C80.4563,-408.909 38,-359.131 38,-307 38,-307 38,-307 38,-233 38,-169.108 110.706,-125.021 154.199,-104.364"/>
<polygon fill="black" stroke="black" points="155.896,-107.436 163.522,-100.08 152.974,-101.075 155.896,-107.436"/>
</g>
<!-- I_U0126&#45;&gt;PKA -->
<g id="edge7" class="edge"><title>I_U0126&#45;&gt;PKA</title>
<path fill="none" stroke="black" d="M97.6047,-435.274C62.002,-413.227 0,-366.316 0,-307 0,-307 0,-307 0,-161 0,-36.0812 203.258,-19.8709 289.274,-18.6038"/>
<polygon fill="black" stroke="black" points="289.433,-22.1027 299.402,-18.5164 289.372,-15.1029 289.433,-22.1027"/>
</g>
<!-- I_U0126&#45;&gt;PKC -->
<g id="edge5" class="edge"><title>I_U0126&#45;&gt;PKC</title>
<path fill="none" stroke="black" d="M170.868,-446.281C274.812,-439.999 510.32,-422.921 534,-396 549.531,-378.343 540.317,-351.228 529.838,-331.566"/>
<ellipse fill="black" stroke="black" cx="166.712" cy="-446.529" rx="4" ry="4"/>
<polygon fill="black" stroke="black" points="532.859,-329.797 524.858,-322.852 526.781,-333.271 532.859,-329.797"/>
</g>
<!-- I_U0126&#45;&gt;JNK -->
<g id="edge10" class="edge"><title>I_U0126&#45;&gt;JNK</title>
<path fill="none" stroke="black" d="M119.236,-431.938C117.072,-412.405 116.723,-380.474 133,-360 213.944,-258.184 382.572,-238.983 457.604,-235.589"/>
<polygon fill="black" stroke="black" points="458.114,-239.073 467.973,-235.195 457.848,-232.078 458.114,-239.073"/>
</g>
<!-- I_LY294002 -->
<g id="node16" class="node"><title>I_LY294002</title>
<ellipse fill="#b2dfee" stroke="#b2dfee" cx="286" cy="-90" rx="54.368" ry="18"/>
<text text-anchor="middle" x="286" y="-85.8" font-family="Times,serif" font-size="14.00">I_LY294002</text>
</g>
<!-- I_LY294002&#45;&gt;PKA -->
<g id="edge32" class="edge"><title>I_LY294002&#45;&gt;PKA</title>
<path fill="none" stroke="black" d="M300.122,-64.8894C304.054,-58.1752 308.335,-50.8673 312.3,-44.0979"/>
<ellipse fill="black" stroke="black" cx="297.947" cy="-68.6034" rx="4.00002" ry="4.00002"/>
<polygon fill="black" stroke="black" points="315.415,-45.7048 317.449,-35.307 309.375,-42.1669 315.415,-45.7048"/>
</g>
<!-- I_PMA -->
<g id="node17" class="node"><title>I_PMA</title>
<ellipse fill="#b2dfee" stroke="#b2dfee" cx="327" cy="-378" rx="36.4616" ry="18"/>
<text text-anchor="middle" x="327" y="-373.8" font-family="Times,serif" font-size="14.00">I_PMA</text>
</g>
<!-- I_PMA&#45;&gt;Raf -->
<g id="edge14" class="edge"><title>I_PMA&#45;&gt;Raf</title>
<path fill="none" stroke="black" d="M340.239,-353.238C343.989,-346.506 348.086,-339.154 351.886,-332.333"/>
<ellipse fill="black" stroke="black" cx="338.189" cy="-356.917" rx="4.00002" ry="4.00002"/>
<polygon fill="black" stroke="black" points="355.014,-333.909 356.824,-323.47 348.899,-330.502 355.014,-333.909"/>
</g>
<!-- I_B2CAMP -->
<g id="node18" class="node"><title>I_B2CAMP</title>
<ellipse fill="#b2dfee" stroke="#b2dfee" cx="473" cy="-378" rx="52.292" ry="18"/>
<text text-anchor="middle" x="473" y="-373.8" font-family="Times,serif" font-size="14.00">I_B2CAMP</text>
</g>
<!-- I_B2CAMP&#45;&gt;Raf -->
<g id="edge18" class="edge"><title>I_B2CAMP&#45;&gt;Raf</title>
<path fill="none" stroke="black" d="M442.608,-357.117C426.971,-346.887 408.073,-334.525 392.96,-324.637"/>
<ellipse fill="black" stroke="black" cx="446.435" cy="-359.621" rx="4.00002" ry="4.00002"/>
<polygon fill="black" stroke="black" points="394.837,-321.683 384.552,-319.137 391.004,-327.54 394.837,-321.683"/>
</g>
<!-- I_B2CAMP&#45;&gt;PIP3 -->
<g id="edge16" class="edge"><title>I_B2CAMP&#45;&gt;PIP3</title>
<path fill="none" stroke="black" d="M526.941,-367.828C541.861,-365.292 558.058,-362.539 573,-360 667.221,-343.991 702.032,-371.436 785,-324 811.588,-308.799 832.983,-280.399 846.014,-259.759"/>
<ellipse fill="black" stroke="black" cx="522.743" cy="-368.542" rx="4.00001" ry="4.00001"/>
<polygon fill="black" stroke="black" points="849.03,-261.535 851.239,-251.173 843.05,-257.896 849.03,-261.535"/>
</g>
<!-- I_B2CAMP&#45;&gt;PKA -->
<g id="edge36" class="edge"><title>I_B2CAMP&#45;&gt;PKA</title>
<path fill="none" stroke="black" d="M462.477,-360.242C447.282,-334.395 421,-282.782 421,-235 421,-235 421,-235 421,-161 421,-110.681 379.451,-64.5042 351.6,-39.2037"/>
<polygon fill="black" stroke="black" points="353.623,-36.3215 343.805,-32.3376 348.995,-41.5741 353.623,-36.3215"/>
</g>
<!-- I_B2CAMP&#45;&gt;PKC -->
<g id="edge35" class="edge"><title>I_B2CAMP&#45;&gt;PKC</title>
<path fill="none" stroke="black" d="M487.122,-352.889C491.054,-346.175 495.335,-338.867 499.3,-332.098"/>
<ellipse fill="black" stroke="black" cx="484.947" cy="-356.603" rx="4.00002" ry="4.00002"/>
<polygon fill="black" stroke="black" points="502.415,-333.705 504.449,-323.307 496.375,-330.167 502.415,-333.705"/>
</g>
<!-- I_B2CAMP&#45;&gt;JNK -->
<g id="edge39" class="edge"><title>I_B2CAMP&#45;&gt;JNK</title>
<path fill="none" stroke="black" d="M472.679,-359.784C472.643,-341.743 473.431,-312.651 478,-288 479.627,-279.219 482.296,-269.87 485.041,-261.508"/>
<polygon fill="black" stroke="black" points="488.402,-262.497 488.363,-251.902 481.787,-260.209 488.402,-262.497"/>
</g>
</g>
</svg>
