<?xml version="1.0" encoding="UTF-8" standalone="no"?>
<!DOCTYPE svg PUBLIC "-//W3C//DTD SVG 1.1//EN"
 "http://www.w3.org/Graphics/SVG/1.1/DTD/svg11.dtd">
<!-- Generated by graphviz version 2.36.0 (20140111.2315)
 -->
<!-- Title: ofzo Pages: 1 -->
<svg width="959pt" height="476pt"
 viewBox="0.00 0.00 959.00 476.00" xmlns="http://www.w3.org/2000/svg" xmlns:xlink="http://www.w3.org/1999/xlink">
<g id="graph0" class="graph" transform="scale(1 1) rotate(0) translate(4 472)">
<title>ofzo</title>
<polygon fill="white" stroke="none" points="-4,4 -4,-472 955,-472 955,4 -4,4"/>
<!-- Raf -->
<g id="node1" class="node"><title>Raf</title>
<ellipse fill="#b2dfee" stroke="#b2dfee" cx="745" cy="-306" rx="27" ry="18"/>
<text text-anchor="middle" x="745" y="-301.8" font-family="Times,serif" font-size="14.00">Raf</text>
</g>
<!-- Mek -->
<g id="node2" class="node"><title>Mek</title>
<ellipse fill="#b2dfee" stroke="#b2dfee" cx="690" cy="-378" rx="27" ry="18"/>
<text text-anchor="middle" x="690" y="-373.8" font-family="Times,serif" font-size="14.00">Mek</text>
</g>
<!-- Mek&#45;&gt;Raf -->
<g id="edge12" class="edge"><title>Mek&#45;&gt;Raf</title>
<path fill="none" stroke="black" d="M701.934,-361.811C709.214,-352.546 718.663,-340.52 726.854,-330.094"/>
<polygon fill="black" stroke="black" points="729.663,-332.185 733.089,-322.159 724.159,-327.86 729.663,-332.185"/>
</g>
<!-- PKC -->
<g id="node9" class="node"><title>PKC</title>
<ellipse fill="#b2dfee" stroke="#b2dfee" cx="505" cy="-306" rx="26.9676" ry="18"/>
<text text-anchor="middle" x="505" y="-301.8" font-family="Times,serif" font-size="14.00">PKC</text>
</g>
<!-- Mek&#45;&gt;PKC -->
<g id="edge11" class="edge"><title>Mek&#45;&gt;PKC</title>
<path fill="none" stroke="black" d="M668.617,-366.793C663.535,-364.474 658.106,-362.082 653,-360 614.175,-344.164 568.648,-328.247 538.445,-318.05"/>
<polygon fill="black" stroke="black" points="539.416,-314.684 528.822,-314.819 537.188,-321.32 539.416,-314.684"/>
</g>
<!-- PLCg -->
<g id="node3" class="node"><title>PLCg</title>
<ellipse fill="#b2dfee" stroke="#b2dfee" cx="290" cy="-162" rx="30.62" ry="18"/>
<text text-anchor="middle" x="290" y="-157.8" font-family="Times,serif" font-size="14.00">PLCg</text>
</g>
<!-- PIP2 -->
<g id="node4" class="node"><title>PIP2</title>
<ellipse fill="#b2dfee" stroke="#b2dfee" cx="129" cy="-90" rx="26.9676" ry="18"/>
<text text-anchor="middle" x="129" y="-85.8" font-family="Times,serif" font-size="14.00">PIP2</text>
</g>
<!-- PLCg&#45;&gt;PIP2 -->
<g id="edge16" class="edge"><title>PLCg&#45;&gt;PIP2</title>
<path fill="none" stroke="black" d="M266.244,-150.671C238.224,-138.489 191.543,-118.193 160.52,-104.704"/>
<polygon fill="black" stroke="black" points="161.607,-101.361 151.041,-100.583 158.816,-107.78 161.607,-101.361"/>
</g>
<!-- PIP3 -->
<g id="node5" class="node"><title>PIP3</title>
<ellipse fill="#b2dfee" stroke="#b2dfee" cx="169" cy="-234" rx="26.9676" ry="18"/>
<text text-anchor="middle" x="169" y="-229.8" font-family="Times,serif" font-size="14.00">PIP3</text>
</g>
<!-- PIP3&#45;&gt;PLCg -->
<g id="edge17" class="edge"><title>PIP3&#45;&gt;PLCg</title>
<path fill="none" stroke="black" d="M188.71,-221.597C208.133,-210.361 238.055,-193.051 260.347,-180.154"/>
<polygon fill="black" stroke="black" points="262.177,-183.14 269.08,-175.103 258.671,-177.081 262.177,-183.14"/>
</g>
<!-- PIP3&#45;&gt;PIP2 -->
<g id="edge9" class="edge"><title>PIP3&#45;&gt;PIP2</title>
<path fill="none" stroke="black" d="M164.254,-216.153C157.398,-191.813 144.653,-146.568 136.511,-117.665"/>
<polygon fill="black" stroke="black" points="139.82,-116.501 133.739,-107.825 133.082,-118.399 139.82,-116.501"/>
</g>
<!-- Erk -->
<g id="node6" class="node"><title>Erk</title>
<ellipse fill="#b2dfee" stroke="#b2dfee" cx="488" cy="-90" rx="27" ry="18"/>
<text text-anchor="middle" x="488" y="-85.8" font-family="Times,serif" font-size="14.00">Erk</text>
</g>
<!-- PKA -->
<g id="node8" class="node"><title>PKA</title>
<ellipse fill="#b2dfee" stroke="#b2dfee" cx="438" cy="-18" rx="27.2014" ry="18"/>
<text text-anchor="middle" x="438" y="-13.8" font-family="Times,serif" font-size="14.00">PKA</text>
</g>
<!-- Erk&#45;&gt;PKA -->
<g id="edge19" class="edge"><title>Erk&#45;&gt;PKA</title>
<path fill="none" stroke="black" d="M476.903,-73.4647C470.495,-64.4927 462.299,-53.0185 455.084,-42.9176"/>
<polygon fill="black" stroke="black" points="457.726,-40.5948 449.066,-34.4918 452.03,-44.6635 457.726,-40.5948"/>
</g>
<!-- Akt -->
<g id="node7" class="node"><title>Akt</title>
<ellipse fill="#b2dfee" stroke="#b2dfee" cx="374" cy="-162" rx="27" ry="18"/>
<text text-anchor="middle" x="374" y="-157.8" font-family="Times,serif" font-size="14.00">Akt</text>
</g>
<!-- Akt&#45;&gt;Erk -->
<g id="edge3" class="edge"><title>Akt&#45;&gt;Erk</title>
<path fill="none" stroke="black" d="M393.339,-149.125C411.599,-137.913 439.195,-120.968 459.887,-108.263"/>
<polygon fill="black" stroke="black" points="461.876,-111.148 468.567,-102.933 458.213,-105.183 461.876,-111.148"/>
</g>
<!-- Akt&#45;&gt;PKA -->
<g id="edge26" class="edge"><title>Akt&#45;&gt;PKA</title>
<path fill="none" stroke="black" d="M357.141,-147.762C336.81,-130.137 307.321,-98.1481 324,-72 340.942,-45.4398 375.02,-31.9816 401.525,-25.2943"/>
<polygon fill="black" stroke="black" points="402.659,-28.6249 411.622,-22.9744 401.092,-21.8027 402.659,-28.6249"/>
</g>
<!-- JNK -->
<g id="node11" class="node"><title>JNK</title>
<ellipse fill="#b2dfee" stroke="#b2dfee" cx="346" cy="-234" rx="27" ry="18"/>
<text text-anchor="middle" x="346" y="-229.8" font-family="Times,serif" font-size="14.00">JNK</text>
</g>
<!-- PKC&#45;&gt;JNK -->
<g id="edge27" class="edge"><title>PKC&#45;&gt;JNK</title>
<path fill="none" stroke="black" d="M482.892,-295.267C455.481,-283.199 408.579,-262.551 377.434,-248.839"/>
<polygon fill="black" stroke="black" points="378.483,-245.477 367.921,-244.651 375.663,-251.883 378.483,-245.477"/>
</g>
<!-- p38 -->
<g id="node10" class="node"><title>p38</title>
<ellipse fill="#b2dfee" stroke="#b2dfee" cx="494" cy="-378" rx="27" ry="18"/>
<text text-anchor="middle" x="494" y="-373.8" font-family="Times,serif" font-size="14.00">p38</text>
</g>
<!-- p38&#45;&gt;PKC -->
<g id="edge15" class="edge"><title>p38&#45;&gt;PKC</title>
<path fill="none" stroke="black" d="M496.663,-360.055C497.874,-352.346 499.339,-343.027 500.7,-334.364"/>
<polygon fill="black" stroke="black" points="504.19,-334.697 502.285,-324.275 497.275,-333.611 504.19,-334.697"/>
</g>
<!-- JNK&#45;&gt;PLCg -->
<g id="edge32" class="edge"><title>JNK&#45;&gt;PLCg</title>
<path fill="none" stroke="black" d="M333.849,-217.811C326.539,-208.673 317.079,-196.849 308.819,-186.524"/>
<polygon fill="black" stroke="black" points="311.495,-184.266 302.515,-178.644 306.029,-188.639 311.495,-184.266"/>
</g>
<!-- JNK&#45;&gt;Akt -->
<g id="edge18" class="edge"><title>JNK&#45;&gt;Akt</title>
<path fill="none" stroke="black" d="M352.636,-216.411C355.913,-208.216 359.944,-198.14 363.618,-188.955"/>
<polygon fill="black" stroke="black" points="366.948,-190.055 367.412,-179.47 360.448,-187.455 366.948,-190.055"/>
</g>
<!-- I_AKT -->
<g id="node12" class="node"><title>I_AKT</title>
<ellipse fill="#b2dfee" stroke="#b2dfee" cx="102" cy="-306" rx="35.4718" ry="18"/>
<text text-anchor="middle" x="102" y="-301.8" font-family="Times,serif" font-size="14.00">I_AKT</text>
</g>
<!-- I_AKT&#45;&gt;PIP2 -->
<g id="edge21" class="edge"><title>I_AKT&#45;&gt;PIP2</title>
<path fill="none" stroke="black" d="M104.164,-287.849C108.834,-250.832 119.893,-163.181 125.545,-118.386"/>
<polygon fill="black" stroke="black" points="129.046,-118.592 126.826,-108.232 122.101,-117.716 129.046,-118.592"/>
</g>
<!-- I_AKT&#45;&gt;PIP3 -->
<g id="edge34" class="edge"><title>I_AKT&#45;&gt;PIP3</title>
<path fill="none" stroke="black" d="M116.869,-289.465C126.052,-279.871 137.973,-267.416 148.097,-256.839"/>
<polygon fill="black" stroke="black" points="150.701,-259.18 155.087,-249.536 145.644,-254.34 150.701,-259.18"/>
</g>
<!-- I_G0076 -->
<g id="node13" class="node"><title>I_G0076</title>
<ellipse fill="#b2dfee" stroke="#b2dfee" cx="401" cy="-450" rx="41.3201" ry="18"/>
<text text-anchor="middle" x="401" y="-445.8" font-family="Times,serif" font-size="14.00">I_G0076</text>
</g>
<!-- I_G0076&#45;&gt;Raf -->
<g id="edge20" class="edge"><title>I_G0076&#45;&gt;Raf</title>
<path fill="none" stroke="black" d="M442.191,-447.898C520.337,-444.935 685.897,-434.197 726,-396 742.486,-380.298 746.432,-354.073 746.732,-334.147"/>
<polygon fill="black" stroke="black" points="750.232,-334.062 746.593,-324.112 743.232,-334.16 750.232,-334.062"/>
</g>
<!-- I_G0076&#45;&gt;Mek -->
<g id="edge1" class="edge"><title>I_G0076&#45;&gt;Mek</title>
<path fill="none" stroke="black" d="M439.698,-443.614C489.778,-436.023 579.346,-420.326 653,-396 655.265,-395.252 657.577,-394.405 659.882,-393.5"/>
<polygon fill="black" stroke="black" points="661.361,-396.674 669.196,-389.542 658.624,-390.232 661.361,-396.674"/>
</g>
<!-- I_G0076&#45;&gt;PLCg -->
<g id="edge22" class="edge"><title>I_G0076&#45;&gt;PLCg</title>
<path fill="none" stroke="black" d="M392.665,-432.357C387.495,-421.948 380.763,-408.24 375,-396 345.089,-332.471 332.257,-318.597 310,-252 303.192,-231.63 297.984,-207.864 294.592,-190.018"/>
<polygon fill="black" stroke="black" points="298.004,-189.217 292.761,-180.01 291.118,-190.476 298.004,-189.217"/>
</g>
<!-- I_G0076&#45;&gt;PIP2 -->
<g id="edge23" class="edge"><title>I_G0076&#45;&gt;PIP2</title>
<path fill="none" stroke="black" d="M363.18,-442.535C270.207,-425.574 38,-376.278 38,-307 38,-307 38,-307 38,-233 38,-183.165 78.2232,-136.829 105.186,-111.367"/>
<polygon fill="black" stroke="black" points="107.722,-113.79 112.731,-104.453 102.993,-108.628 107.722,-113.79"/>
</g>
<!-- I_G0076&#45;&gt;Erk -->
<g id="edge14" class="edge"><title>I_G0076&#45;&gt;Erk</title>
<path fill="none" stroke="black" d="M408.69,-431.907C419.794,-405.623 439,-353.447 439,-307 439,-307 439,-307 439,-233 439,-190.075 459.255,-143.647 473.72,-115.965"/>
<polygon fill="black" stroke="black" points="476.893,-117.456 478.552,-106.992 470.729,-114.137 476.893,-117.456"/>
</g>
<!-- I_G0076&#45;&gt;Akt -->
<g id="edge8" class="edge"><title>I_G0076&#45;&gt;Akt</title>
<path fill="none" stroke="black" d="M400.014,-432.004C397.692,-393.487 391.362,-296.63 382,-216 381.019,-207.551 379.719,-198.378 378.452,-190.076"/>
<polygon fill="black" stroke="black" points="381.902,-189.482 376.892,-180.146 374.986,-190.568 381.902,-189.482"/>
</g>
<!-- I_G0076&#45;&gt;PKA -->
<g id="edge24" class="edge"><title>I_G0076&#45;&gt;PKA</title>
<path fill="none" stroke="black" d="M359.548,-449.965C296.916,-449.733 176.033,-442.577 87,-396 37.9867,-370.359 0,-362.315 0,-307 0,-307 0,-307 0,-161 0,-103.789 41.6835,-97.2924 93,-72 146.665,-45.5499 322.804,-28.3708 400.551,-21.8973"/>
<polygon fill="black" stroke="black" points="401.164,-25.3589 410.845,-21.055 400.593,-18.3822 401.164,-25.3589"/>
</g>
<!-- I_G0076&#45;&gt;p38 -->
<g id="edge29" class="edge"><title>I_G0076&#45;&gt;p38</title>
<path fill="none" stroke="black" d="M420.723,-434.155C434.629,-423.688 453.382,-409.573 468.436,-398.242"/>
<polygon fill="black" stroke="black" points="470.922,-400.751 476.807,-391.941 466.712,-395.158 470.922,-400.751"/>
</g>
<!-- I_G0076&#45;&gt;JNK -->
<g id="edge2" class="edge"><title>I_G0076&#45;&gt;JNK</title>
<path fill="none" stroke="black" d="M396.422,-431.824C393.668,-421.456 390.106,-407.976 387,-396 374.767,-348.842 360.828,-293.826 352.76,-261.85"/>
<polygon fill="black" stroke="black" points="356.098,-260.775 350.26,-251.934 349.311,-262.486 356.098,-260.775"/>
</g>
<!-- I_Psitectorigenin -->
<g id="node14" class="node"><title>I_Psitectorigenin</title>
<ellipse fill="#b2dfee" stroke="#b2dfee" cx="226" cy="-306" rx="70.2884" ry="18"/>
<text text-anchor="middle" x="226" y="-301.8" font-family="Times,serif" font-size="14.00">I_Psitectorigenin</text>
</g>
<!-- I_Psitectorigenin&#45;&gt;PIP3 -->
<g id="edge33" class="edge"><title>I_Psitectorigenin&#45;&gt;PIP3</title>
<path fill="none" stroke="black" d="M212.202,-288.055C204.892,-279.077 195.804,-267.917 187.853,-258.152"/>
<polygon fill="black" stroke="black" points="190.533,-255.901 181.504,-250.356 185.105,-260.321 190.533,-255.901"/>
</g>
<!-- I_Psitectorigenin&#45;&gt;Erk -->
<g id="edge31" class="edge"><title>I_Psitectorigenin&#45;&gt;Erk</title>
<path fill="none" stroke="black" d="M222.781,-287.911C217.686,-255.138 211.902,-183.228 250,-144 313.228,-78.8951 364.405,-135.163 451,-108 453.276,-107.286 455.596,-106.465 457.907,-105.577"/>
<polygon fill="black" stroke="black" points="459.37,-108.758 467.233,-101.657 456.658,-102.305 459.37,-108.758"/>
</g>
<!-- I_U0126 -->
<g id="node15" class="node"><title>I_U0126</title>
<ellipse fill="#b2dfee" stroke="#b2dfee" cx="894" cy="-450" rx="41.3201" ry="18"/>
<text text-anchor="middle" x="894" y="-445.8" font-family="Times,serif" font-size="14.00">I_U0126</text>
</g>
<!-- I_U0126&#45;&gt;Raf -->
<g id="edge6" class="edge"><title>I_U0126&#45;&gt;Raf</title>
<path fill="none" stroke="black" d="M890.318,-431.911C885.323,-412.353 874.676,-380.398 855,-360 834.396,-338.64 803.429,-324.792 779.597,-316.628"/>
<polygon fill="black" stroke="black" points="780.463,-313.229 769.871,-313.471 778.302,-319.887 780.463,-313.229"/>
</g>
<!-- I_U0126&#45;&gt;Mek -->
<g id="edge7" class="edge"><title>I_U0126&#45;&gt;Mek</title>
<path fill="none" stroke="black" d="M862.572,-438.216C824.816,-425.261 761.758,-403.623 723.221,-390.4"/>
<polygon fill="black" stroke="black" points="724.108,-387.003 713.513,-387.068 721.836,-393.625 724.108,-387.003"/>
</g>
<!-- I_U0126&#45;&gt;Erk -->
<g id="edge5" class="edge"><title>I_U0126&#45;&gt;Erk</title>
<path fill="none" stroke="black" d="M897.754,-432.049C903.291,-405.521 913,-352.517 913,-307 913,-307 913,-307 913,-233 913,-151.396 627.57,-108.176 524.537,-95.2326"/>
<polygon fill="black" stroke="black" points="524.939,-91.7557 514.586,-94.0058 524.082,-98.7031 524.939,-91.7557"/>
</g>
<!-- I_U0126&#45;&gt;PKA -->
<g id="edge4" class="edge"><title>I_U0126&#45;&gt;PKA</title>
<path fill="none" stroke="black" d="M905.535,-432.384C922.19,-406.722 951,-355.348 951,-307 951,-307 951,-307 951,-161 951,-62.2133 593.199,-29.3887 475.228,-21.2508"/>
<polygon fill="black" stroke="black" points="475.431,-17.7566 465.219,-20.5803 474.963,-24.741 475.431,-17.7566"/>
</g>
<!-- I_LY294002 -->
<g id="node16" class="node"><title>I_LY294002</title>
<ellipse fill="#b2dfee" stroke="#b2dfee" cx="388" cy="-90" rx="54.368" ry="18"/>
<text text-anchor="middle" x="388" y="-85.8" font-family="Times,serif" font-size="14.00">I_LY294002</text>
</g>
<!-- I_LY294002&#45;&gt;PKA -->
<g id="edge25" class="edge"><title>I_LY294002&#45;&gt;PKA</title>
<path fill="none" stroke="black" d="M399.849,-72.411C406.193,-63.5304 414.115,-52.4391 421.094,-42.6684"/>
<polygon fill="black" stroke="black" points="423.956,-44.6825 426.921,-34.5108 418.26,-40.6138 423.956,-44.6825"/>
</g>
<!-- I_PMA -->
<g id="node17" class="node"><title>I_PMA</title>
<ellipse fill="#b2dfee" stroke="#b2dfee" cx="810" cy="-378" rx="36.4616" ry="18"/>
<text text-anchor="middle" x="810" y="-373.8" font-family="Times,serif" font-size="14.00">I_PMA</text>
</g>
<!-- I_PMA&#45;&gt;Raf -->
<g id="edge10" class="edge"><title>I_PMA&#45;&gt;Raf</title>
<path fill="none" stroke="black" d="M795.574,-361.465C786.872,-352.092 775.633,-339.99 765.962,-329.574"/>
<polygon fill="black" stroke="black" points="768.308,-326.958 758.939,-322.011 763.179,-331.721 768.308,-326.958"/>
</g>
<!-- I_B2CAMP -->
<g id="node18" class="node"><title>I_B2CAMP</title>
<ellipse fill="#b2dfee" stroke="#b2dfee" cx="592" cy="-378" rx="52.292" ry="18"/>
<text text-anchor="middle" x="592" y="-373.8" font-family="Times,serif" font-size="14.00">I_B2CAMP</text>
</g>
<!-- I_B2CAMP&#45;&gt;Raf -->
<g id="edge13" class="edge"><title>I_B2CAMP&#45;&gt;Raf</title>
<path fill="none" stroke="black" d="M622.228,-363.17C648.754,-351.034 687.17,-333.458 713.941,-321.21"/>
<polygon fill="black" stroke="black" points="715.596,-324.302 723.234,-316.958 712.684,-317.936 715.596,-324.302"/>
</g>
<!-- I_B2CAMP&#45;&gt;PKA -->
<g id="edge30" class="edge"><title>I_B2CAMP&#45;&gt;PKA</title>
<path fill="none" stroke="black" d="M589.827,-359.984C586.621,-333.369 581,-280.25 581,-235 581,-235 581,-235 581,-161 581,-98.5477 511.476,-54.1496 469.382,-32.9916"/>
<polygon fill="black" stroke="black" points="470.867,-29.8219 460.344,-28.5921 467.803,-36.1158 470.867,-29.8219"/>
</g>
<!-- I_B2CAMP&#45;&gt;PKC -->
<g id="edge28" class="edge"><title>I_B2CAMP&#45;&gt;PKC</title>
<path fill="none" stroke="black" d="M572.258,-361.116C559.637,-350.961 543.167,-337.709 529.684,-326.86"/>
<polygon fill="black" stroke="black" points="531.721,-324.008 521.736,-320.466 527.333,-329.461 531.721,-324.008"/>
</g>
</g>
</svg>
